<svg width="300" height="147" viewBox="0 0 300 147" fill="none" xmlns="http://www.w3.org/2000/svg">
<path d="M201.123 0L224.185 3.72733e-05L169.413 143.142H147.312L201.123 0Z" fill="black"/>
<path d="M157.328 1.34006L134.266 1.3401L160.124 65.3418C170.465 58.3232 173.23 53.1059 172.296 41.3191L157.328 1.34006Z" fill="black"/>
<path d="M27.9715 146.73L0 62.3332H16.2765L41.2338 138.652H33.1558L59.0777 62.3332H73.5457L98.7441 138.652H90.9073L116.467 62.3332H131.418L103.446 146.73H86.808L63.7798 77.8863H68.1202L44.7302 146.73H27.9715Z" fill="black"/>
<path d="M236.823 126.836L235.979 108.269L280.227 62.3332H297.83L261.057 101.397L252.376 110.922L236.823 126.836ZM222.837 146.73V62.3332H238.511V146.73H222.837ZM281.674 146.73L249.362 108.269L259.731 96.8152L300 146.73H281.674Z" fill="black"/>
</svg>
